<svg width="62" height="65" viewBox="0 0 62 65" fill="none" xmlns="http://www.w3.org/2000/svg">
<path d="M58.5 18.6076V20.5V26V27.5L54.5347 30.7595H48.7921L44.7723 32.7848V37.8481L41.901 39.8734L40.7525 45.443L38.4554 47.9747L35.0099 50H29.8416H18.3564L14.3366 47.9747L9.74257 45.443H4.5L2.5 39.8734V22L7.44554 18.6076L9.74257 15.5696L12 9.5L18.3564 8L23.5 6H34L35.0099 14.0506L40.7525 17.0886H46.495H54.5347L58.5 18.6076Z" fill="#525252"/>
<path d="M6.5 20L10 18.5L11.5 15L13.5 10.5H18.5L22 8H33V12L31 12.5V15L36.5 16H42H53L57.5 18.5V25.5L55 26.5L53 29.5H42V35L40 37L38.5 40L36.5 41.5V44.5L34 46H15.5V44.5L13.5 43H10C9.33333 43.1667 7.7 43.4 6.5 43C5.3 42.6 5 41.8333 5 41.5V22.5L6.5 20Z" fill="#CCCCCC"/>
<path d="M35 18H51.5H54.5V22.5L51.5 27H43.5L39 29.5V33L37 36L35 41H33.5L30.5 44.5H25H17.5L7.5 40V33V27V21L14 18V14L20 13L21 10H25H30.5L31.5 12L30.5 14V15V17L35 18Z" fill="white"/>
</svg>
